HIERARCHY
ROOT Hips
{
	OFFSET -0.001795 -0.223333 0.028219
	CHANNELS 6 Xposition Yposition Zposition Zrotation Yrotation Xrotation 
	JOINT LeftUpLeg
	{
		OFFSET 0.069520 -0.091406 -0.006815
		CHANNELS 3 Zrotation Yrotation Xrotation
		JOINT LeftLeg
		{
			OFFSET 0.034277 -0.375199 -0.004496
			CHANNELS 3 Zrotation Yrotation Xrotation
			JOINT LeftFoot
			{
				OFFSET -0.013596 -0.397961 -0.043693
				CHANNELS 3 Zrotation Yrotation Xrotation
				JOINT LeftToe
				{
					OFFSET 0.026358 -0.055791 0.119288
					CHANNELS 3 Zrotation Yrotation Xrotation
					End Site
					{
						OFFSET 0.000000 0.000000 0.000000
					}
				}
			}
		}
	}
	JOINT RightUpLeg
	{
		OFFSET -0.067670 -0.090522 -0.004320
		CHANNELS 3 Zrotation Yrotation Xrotation
		JOINT RightLeg
		{
			OFFSET -0.038290 -0.382569 -0.008850
			CHANNELS 3 Zrotation Yrotation Xrotation
			JOINT RightFoot
			{
				OFFSET 0.015774 -0.398415 -0.042312
				CHANNELS 3 Zrotation Yrotation Xrotation
				JOINT RightToe
				{
					OFFSET -0.025372 -0.048144 0.123348
					CHANNELS 3 Zrotation Yrotation Xrotation
					End Site
					{
						OFFSET 0.000000 0.000000 0.000000
					}
				}
			}
		}
	}
	JOINT Spine
	{
		OFFSET -0.002533 0.108963 -0.026696
		CHANNELS 3 Zrotation Yrotation Xrotation
		JOINT Spine1
		{
			OFFSET 0.005487 0.135180 0.001092
			CHANNELS 3 Zrotation Yrotation Xrotation
			JOINT Spine2
			{
				OFFSET 0.001457 0.052922 0.025425
				CHANNELS 3 Zrotation Yrotation Xrotation
				JOINT Neck
				{
					OFFSET -0.002778 0.213870 -0.042857
					CHANNELS 3 Zrotation Yrotation Xrotation
					JOINT Head
					{
						OFFSET 0.005152 0.064970 0.051349
						CHANNELS 3 Zrotation Yrotation Xrotation
						End Site
						{
							OFFSET 0.000000 0.000000 0.000000
						}
					}
				}
				JOINT LeftShoulder
				{
					OFFSET 0.078845 0.121749 -0.034090
					CHANNELS 3 Zrotation Yrotation Xrotation
					JOINT LeftArm
					{
						OFFSET 0.090977 0.030469 -0.008868
						CHANNELS 3 Zrotation Yrotation Xrotation
						JOINT LeftForeArm
						{
							OFFSET 0.259612 -0.012772 -0.027456
							CHANNELS 3 Zrotation Yrotation Xrotation
							JOINT LeftHand
							{
								OFFSET 0.249234 0.008986 -0.001171
								CHANNELS 3 Zrotation Yrotation Xrotation
								End Site
								{
									OFFSET 0.000000 0.000000 0.000000
								}
							}
						}
					}
				}
				JOINT RightShoulder
				{
					OFFSET -0.081759 0.118833 -0.038615
					CHANNELS 3 Zrotation Yrotation Xrotation
					JOINT RightArm
					{
						OFFSET -0.096012 0.032551 -0.009143
						CHANNELS 3 Zrotation Yrotation Xrotation
						JOINT RightForeArm
						{
							OFFSET -0.253742 -0.013329 -0.021401
							CHANNELS 3 Zrotation Yrotation Xrotation
							JOINT RightHand
							{
								OFFSET -0.255298 0.007772 -0.005559
								CHANNELS 3 Zrotation Yrotation Xrotation
								End Site
								{
									OFFSET 0.000000 0.000000 0.000000
								}
							}
						}
					}
				}
			}
		}
	}
}
MOTION
Frames: 9
Frame Time: 0.050000
-0.019361 0.944451 0.077921 2.026137 16.575967 -2.869232 2.705882 0.117939 5.033752 3.072275 -0.372973 1.592150 -5.647958 -3.099260 11.086678 0.000000 0.000000 0.000000 -10.013785 -0.395657 1.236053 2.633591 -0.693388 15.967308 -0.036209 -2.914815 11.511252 0.000000 0.000000 0.000000 0.109290 0.170748 -9.182871 10.005642 -4.252285 -4.365587 -2.290792 -9.042503 -9.321604 4.159945 -6.789344 23.038059 0.000000 0.000000 0.000000 3.206304 3.341663 -0.628824 -55.172449 -8.935361 -1.315279 -31.575954 -36.133192 11.593315 0.000000 0.000000 0.000000 -24.261277 2.901297 3.125380 -42.752902 58.581499 -25.829935 -88.975480 -8.535366 10.599006 0.000000 0.000000 0.000000 
-0.021253 0.944511 0.073716 2.102578 15.240022 -2.629603 2.546398 0.124847 4.434472 2.986479 -0.405314 2.103489 -4.985967 -2.117059 11.139094 0.000000 0.000000 0.000000 -10.228395 -0.327759 0.092836 3.028511 -0.777229 16.577945 -0.174107 -3.235315 10.962530 0.000000 0.000000 0.000000 0.254169 0.193928 -8.238722 9.832803 -4.147191 -4.526540 -1.967481 -8.494209 -8.275983 5.146017 -7.581340 21.526256 0.000000 0.000000 0.000000 3.197235 3.425441 -0.670210 -54.235757 -7.079879 -2.208293 -34.628098 -37.764729 13.339170 0.000000 0.000000 0.000000 -24.150917 2.848850 3.071253 -43.536180 58.848210 -26.557357 -91.004027 -7.882424 10.263187 0.000000 0.000000 0.000000 
-0.023855 0.944873 0.068566 1.585842 13.692898 -2.582649 2.806584 0.081626 3.484250 3.284035 -0.531375 3.263887 -4.142274 -0.915385 11.089768 0.000000 0.000000 0.000000 -9.671331 -0.220086 -1.362417 3.207885 -0.801629 17.515411 -0.167849 -3.374747 10.886501 0.000000 0.000000 0.000000 0.420392 0.204580 -7.069441 9.781111 -4.176273 -4.240637 -1.027144 -8.065991 -7.827127 6.099149 -8.406954 21.154086 0.000000 0.000000 0.000000 2.847368 3.190160 -0.677453 -53.253920 -4.689361 -3.171125 -35.362787 -39.464833 14.402479 0.000000 0.000000 0.000000 -22.306444 2.510679 2.976131 -44.331095 59.054928 -27.459157 -93.162112 -5.175561 7.794804 0.000000 0.000000 0.000000 
-0.026886 0.945276 0.062889 1.098998 12.279376 -2.196988 3.407054 -0.017317 1.836986 3.004502 -0.626770 4.940139 -3.384853 0.208140 11.153657 0.000000 0.000000 0.000000 -9.187231 -0.114154 -2.795659 3.261814 -0.749902 17.562404 0.252508 -2.809671 11.393908 0.000000 0.000000 0.000000 0.323607 0.181818 -5.767552 10.075338 -4.363005 -3.972038 -0.452449 -7.743069 -6.990381 7.274983 -9.259269 19.672482 0.000000 0.000000 0.000000 3.088422 2.860224 -0.575305 -52.113279 -2.326143 -4.103311 -35.938757 -40.909454 15.351987 0.000000 0.000000 0.000000 -21.852871 2.129734 2.950543 -43.242043 58.146681 -26.541599 -94.957791 -4.870344 7.542163 0.000000 0.000000 0.000000 
-0.029267 0.946184 0.056593 0.566276 10.734312 -1.814739 3.808357 -0.095371 0.357171 3.079376 -0.748836 6.339660 -2.609142 1.464957 11.458337 0.000000 0.000000 0.000000 -8.123237 0.022887 -4.030489 2.853667 -0.552373 17.421745 -0.012394 -3.482887 11.361810 0.000000 0.000000 0.000000 0.449858 0.164189 -4.614529 9.913456 -4.290863 -3.932199 0.526499 -7.835385 -5.746444 8.083691 -9.751761 18.765609 0.000000 0.000000 0.000000 2.577562 2.717808 -0.640774 -52.147260 0.444581 -5.255294 -34.691061 -42.829686 15.844505 0.000000 0.000000 0.000000 -20.723037 1.458425 2.898266 -43.504660 57.869526 -27.055329 -98.689611 -3.656913 6.370617 0.000000 0.000000 0.000000 
-0.030297 0.947123 0.050239 0.557987 9.279164 -0.763538 3.969647 -0.216185 -1.984947 2.452960 -0.784724 8.148465 -1.909107 2.685311 12.016595 0.000000 0.000000 0.000000 -7.923611 0.146548 -6.243997 2.589033 -0.410429 17.547754 0.072586 -3.773824 12.498110 0.000000 0.000000 0.000000 0.193577 0.133088 -3.796165 9.744524 -4.228189 -3.766598 1.063877 -8.007041 -4.070459 9.024007 -10.321501 17.371748 0.000000 0.000000 0.000000 2.602701 1.922065 -0.433654 -52.609750 2.568527 -6.217952 -34.862941 -44.288877 16.769716 0.000000 0.000000 0.000000 -20.786433 0.530604 2.895060 -42.132375 57.049991 -26.274760 -101.837298 -4.557773 7.359358 0.000000 0.000000 0.000000 
-0.029641 0.948594 0.043914 0.353037 8.023028 0.076894 3.983671 -0.272102 -3.023331 1.878567 -0.674165 8.082091 -0.473677 4.954199 12.276327 0.000000 0.000000 0.000000 -7.420110 0.258312 -7.463307 2.090566 -0.203179 16.904579 0.092465 -3.908434 12.607521 0.000000 0.000000 0.000000 0.215394 0.094970 -2.574725 9.702217 -4.153100 -4.070914 2.201546 -8.620037 -3.191804 9.652552 -10.555823 16.586068 0.000000 0.000000 0.000000 1.250043 1.514384 -0.445576 -53.813601 4.470431 -7.123679 -32.126228 -44.608926 15.964809 0.000000 0.000000 0.000000 -20.940096 0.052898 3.117359 -41.345253 56.701965 -26.335643 -104.426645 -4.668663 7.295795 0.000000 0.000000 0.000000 
-0.027527 0.949764 0.038284 0.127382 6.215984 0.987646 3.983318 -0.341174 -4.301102 1.513839 -0.602798 8.136967 0.666887 6.998921 13.612175 0.000000 0.000000 0.000000 -6.945288 0.401805 -9.230582 1.271459 0.097789 16.852222 0.651128 -3.229236 13.140794 0.000000 0.000000 0.000000 0.031238 0.080898 -2.193613 10.270290 -4.578935 -2.928631 2.715293 -8.247532 -2.919570 10.022919 -10.738810 16.340566 0.000000 0.000000 0.000000 0.580818 0.630652 -0.190657 -54.115594 6.343380 -7.929794 -32.485655 -45.670387 16.685678 0.000000 0.000000 0.000000 -20.534055 0.208651 3.216474 -39.910623 55.485957 -25.077858 -104.338850 -5.202886 7.655150 0.000000 0.000000 0.000000 
-0.024395 0.950690 0.033721 0.166775 3.491158 1.828170 3.665954 -0.359890 -4.713447 1.012115 -0.436545 7.016759 2.331655 9.747307 15.748513 0.000000 0.000000 0.000000 -6.808759 0.527858 -10.426333 0.755012 0.334441 16.231901 0.967074 -2.749807 12.335424 0.000000 0.000000 0.000000 0.391801 0.052929 -1.385012 9.971554 -4.427335 -2.836631 3.490820 -7.612620 -1.869010 10.735860 -11.052385 14.923292 0.000000 0.000000 0.000000 -0.057136 1.136739 -0.397476 -55.392819 7.434689 -8.590169 -34.308345 -47.556184 18.595124 0.000000 0.000000 0.000000 -21.091344 -0.668364 3.335979 -38.789256 54.385845 -24.278747 -102.701647 -7.862708 10.072518 0.000000 0.000000 0.000000 
